<svg width="72" height="72" viewBox="0 0 72 72" xmlns="http://www.w3.org/2000/svg">
  <defs>
    <!-- Gradient cho background -->
    <linearGradient id="bgGradient72" x1="0%" y1="0%" x2="100%" y2="100%">
      <stop offset="0%" style="stop-color:#4f46e5;stop-opacity:1" />
      <stop offset="50%" style="stop-color:#3b82f6;stop-opacity:1" />
      <stop offset="100%" style="stop-color:#06b6d4;stop-opacity:1" />
    </linearGradient>
    
    <!-- Gradient cho map pin -->
    <linearGradient id="pinGradient72" x1="0%" y1="0%" x2="100%" y2="100%">
      <stop offset="0%" style="stop-color:#ef4444;stop-opacity:1" />
      <stop offset="100%" style="stop-color:#dc2626;stop-opacity:1" />
    </linearGradient>
    
    <!-- Shadow filter -->
    <filter id="shadow72" x="-50%" y="-50%" width="200%" height="200%">
      <feDropShadow dx="0" dy="0.28125" stdDeviation="0.5625" flood-color="#000" flood-opacity="0.3"/>
    </filter>
  </defs>
  
  <!-- Background circle -->
  <circle cx="36" cy="36" r="33.839999999999996" fill="url(#bgGradient72)" filter="url(#shadow72)"/>
  
  <!-- Decorative ring -->
  <circle cx="36" cy="36" r="31.1328" fill="none" stroke="rgba(255,255,255,0.1)" stroke-width="0.140625"/>
  
  <!-- Globe background -->
  <circle cx="36" cy="33.839999999999996" r="8.4375" fill="rgba(255,255,255,0.15)" stroke="rgba(255,255,255,0.2)" stroke-width="0.140625"/>
  
  <!-- Simplified world continents -->
  <g fill="rgba(255,255,255,0.25)">
    <path d="M 25.3125 28.125 Q 28.125 25.3125 33.75 26.71875 Q 39.375 28.125 42.1875 30.9375 Q 40.78125 35.15625 37.96875 36.5625 Q 33.75 35.15625 28.125 33.75 Q 23.90625 32.34375 25.3125 28.125 Z"/>
  </g>
  
  <!-- Map pin -->
  <g>
    <!-- Pin shadow -->
    <ellipse cx="36.28125" cy="47.8125" rx="2.109375" ry="1.125" fill="rgba(0,0,0,0.2)"/>
    
    <!-- Pin body -->
    <path d="M 36 28.125 C 32.34375 28.125 29.53125 30.9375 29.53125 34.59375 C 29.53125 37.96875 36 45 36 45 C 36 45 42.46875 37.96875 42.46875 34.59375 C 42.46875 30.9375 39.65625 28.125 36 28.125 Z" 
          fill="url(#pinGradient72)" 
          stroke="rgba(255,255,255,0.4)" 
          stroke-width="0.140625"/>
    
    <!-- Pin inner circle -->
    <circle cx="36" cy="34.59375" r="2.53125" fill="white"/>
    <circle cx="36" cy="34.59375" r="1.6875" fill="#ef4444"/>
  </g>
  
  <!-- Compass elements (cho size >= 128) -->
  
  
  <!-- Brand indicator (for larger sizes) -->
  
</svg>