<svg width="128" height="128" viewBox="0 0 128 128" xmlns="http://www.w3.org/2000/svg">
  <defs>
    <!-- Background gradient -->
    <linearGradient id="bgGradient128" x1="0%" y1="0%" x2="100%" y2="100%">
      <stop offset="0%" style="stop-color:#667eea;stop-opacity:1" />
      <stop offset="30%" style="stop-color:#764ba2;stop-opacity:1" />
      <stop offset="70%" style="stop-color:#f093fb;stop-opacity:1" />
      <stop offset="100%" style="stop-color:#f5576c;stop-opacity:1" />
    </linearGradient>
    
    <!-- Compass ring gradient -->
    <linearGradient id="ringGradient128" x1="0%" y1="0%" x2="100%" y2="100%">
      <stop offset="0%" style="stop-color:#ffd700;stop-opacity:1" />
      <stop offset="50%" style="stop-color:#ff8c00;stop-opacity:1" />
      <stop offset="100%" style="stop-color:#ff6347;stop-opacity:1" />
    </linearGradient>
    
    <!-- Compass needle gradient -->
    <linearGradient id="needleNorth128" x1="0%" y1="0%" x2="100%" y2="100%">
      <stop offset="0%" style="stop-color:#ff4757;stop-opacity:1" />
      <stop offset="100%" style="stop-color:#c44569;stop-opacity:1" />
    </linearGradient>
    
    <linearGradient id="needleSouth128" x1="0%" y1="0%" x2="100%" y2="100%">
      <stop offset="0%" style="stop-color:#2f3542;stop-opacity:1" />
      <stop offset="100%" style="stop-color:#57606f;stop-opacity:1" />
    </linearGradient>
    
    <!-- Star gradient -->
    <linearGradient id="starGradient128" x1="0%" y1="0%" x2="100%" y2="100%">
      <stop offset="0%" style="stop-color:#ffeaa7;stop-opacity:1" />
      <stop offset="100%" style="stop-color:#fdcb6e;stop-opacity:1" />
    </linearGradient>
    
    <!-- Shadow filters -->
    <filter id="shadow128" x="-50%" y="-50%" width="200%" height="200%">
      <feDropShadow dx="0" dy="1" stdDeviation="1.5" flood-color="#000" flood-opacity="0.25"/>
    </filter>
    
    <filter id="innerShadow128" x="-50%" y="-50%" width="200%" height="200%">
      <feDropShadow dx="0" dy="0.5" stdDeviation="0.75" flood-color="#000" flood-opacity="0.15"/>
    </filter>
    
    <!-- Glow effect -->
    <filter id="glow128" x="-50%" y="-50%" width="200%" height="200%">
      <feGaussianBlur stdDeviation="0.75" result="coloredBlur"/>
      <feMerge> 
        <feMergeNode in="coloredBlur"/>
        <feMergeNode in="SourceGraphic"/>
      </feMerge>
    </filter>
  </defs>
  
  <!-- Background circle with gradient -->
  <circle cx="64" cy="64" r="60.16" fill="url(#bgGradient128)" filter="url(#shadow128)"/>
  
  <!-- Outer decorative ring -->
  <circle cx="64" cy="64" r="55.3472" fill="none" stroke="rgba(255,255,255,0.15)" stroke-width="0.5"/>
  
  <!-- Compass ring -->
  <circle cx="64" cy="64" r="21.25" fill="none" stroke="url(#ringGradient128)" stroke-width="1.5" filter="url(#innerShadow128)"/>
  <circle cx="64" cy="64" r="21.25" fill="none" stroke="rgba(255,255,255,0.3)" stroke-width="0.25"/>
  
  <!-- Main compass rose (8-pointed star) -->
  <g filter="url(#glow128)">
    <!-- Long points (N, E, S, W) -->
    <g fill="url(#starGradient128)" stroke="rgba(255,255,255,0.4)" stroke-width="0.25">
      <!-- North point -->
      <path d="M 64 46.5 L 62 57.75 L 64 55.25 L 66 57.75 Z"/>
      <!-- East point -->
      <path d="M 81.5 64 L 70.25 62 L 72.75 64 L 70.25 66 Z"/>
      <!-- South point -->
      <path d="M 64 81.5 L 66 70.25 L 64 72.75 L 62 70.25 Z"/>
      <!-- West point -->
      <path d="M 46.5 64 L 57.75 66 L 55.25 64 L 57.75 62 Z"/>
    </g>
    
    <!-- Short points (NE, SE, SW, NW) -->
    <g fill="rgba(255,255,255,0.8)" stroke="rgba(255,255,255,0.6)" stroke-width="0.125">
      <!-- Northeast -->
      <path d="M 76.5 51.5 L 69 60.25 L 70.25 57.75 L 67.75 59 Z"/>
      <!-- Southeast -->
      <path d="M 76.5 76.5 L 67.75 69 L 70.25 70.25 L 69 67.75 Z"/>
      <!-- Southwest -->
      <path d="M 51.5 76.5 L 59 67.75 L 57.75 70.25 L 60.25 69 Z"/>
      <!-- Northwest -->
      <path d="M 51.5 51.5 L 60.25 59 L 57.75 57.75 L 59 60.25 Z"/>
    </g>
  </g>
  
  <!-- Compass needle -->
  <g filter="url(#innerShadow128)">
    <!-- North needle (red) -->
    <path d="M 64 52.75 L 63 65.25 L 64 64 L 65 65.25 Z" 
          fill="url(#needleNorth128)" stroke="rgba(255,255,255,0.3)" stroke-width="0.125"/>
    
    <!-- South needle (dark) -->
    <path d="M 64 75.25 L 65 62.75 L 64 64 L 63 62.75 Z" 
          fill="url(#needleSouth128)" stroke="rgba(255,255,255,0.2)" stroke-width="0.125"/>
  </g>
  
  <!-- Center pivot -->
  <circle cx="64" cy="64" r="2" fill="url(#ringGradient128)" stroke="rgba(255,255,255,0.5)" stroke-width="0.25" filter="url(#innerShadow128)"/>
  <circle cx="64" cy="64" r="1" fill="rgba(255,255,255,0.9)"/>
  
  <!-- Cardinal direction markers (for larger sizes) -->
  
  <g fill="rgba(255,255,255,0.9)" font-family="Arial, sans-serif" font-weight="bold" text-anchor="middle" font-size="4">
    <text x="64" y="40.25" text-anchor="middle">N</text>
    <text x="87.75" y="65.5" text-anchor="middle">E</text>
    <text x="64" y="90.25" text-anchor="middle">S</text>
    <text x="40.25" y="65.5" text-anchor="middle">W</text>
  </g>
  
  <!-- Decorative dots around the compass -->
  
  
  <!-- Brand indicator (for larger sizes) -->
  
</svg>