<svg width="96" height="96" viewBox="0 0 96 96" xmlns="http://www.w3.org/2000/svg">
  <defs>
    <!-- Background gradient -->
    <linearGradient id="bgGradient96" x1="0%" y1="0%" x2="100%" y2="100%">
      <stop offset="0%" style="stop-color:#667eea;stop-opacity:1" />
      <stop offset="30%" style="stop-color:#764ba2;stop-opacity:1" />
      <stop offset="70%" style="stop-color:#f093fb;stop-opacity:1" />
      <stop offset="100%" style="stop-color:#f5576c;stop-opacity:1" />
    </linearGradient>
    
    <!-- Compass ring gradient -->
    <linearGradient id="ringGradient96" x1="0%" y1="0%" x2="100%" y2="100%">
      <stop offset="0%" style="stop-color:#ffd700;stop-opacity:1" />
      <stop offset="50%" style="stop-color:#ff8c00;stop-opacity:1" />
      <stop offset="100%" style="stop-color:#ff6347;stop-opacity:1" />
    </linearGradient>
    
    <!-- Compass needle gradient -->
    <linearGradient id="needleNorth96" x1="0%" y1="0%" x2="100%" y2="100%">
      <stop offset="0%" style="stop-color:#ff4757;stop-opacity:1" />
      <stop offset="100%" style="stop-color:#c44569;stop-opacity:1" />
    </linearGradient>
    
    <linearGradient id="needleSouth96" x1="0%" y1="0%" x2="100%" y2="100%">
      <stop offset="0%" style="stop-color:#2f3542;stop-opacity:1" />
      <stop offset="100%" style="stop-color:#57606f;stop-opacity:1" />
    </linearGradient>
    
    <!-- Star gradient -->
    <linearGradient id="starGradient96" x1="0%" y1="0%" x2="100%" y2="100%">
      <stop offset="0%" style="stop-color:#ffeaa7;stop-opacity:1" />
      <stop offset="100%" style="stop-color:#fdcb6e;stop-opacity:1" />
    </linearGradient>
    
    <!-- Shadow filters -->
    <filter id="shadow96" x="-50%" y="-50%" width="200%" height="200%">
      <feDropShadow dx="0" dy="0.75" stdDeviation="1.125" flood-color="#000" flood-opacity="0.25"/>
    </filter>
    
    <filter id="innerShadow96" x="-50%" y="-50%" width="200%" height="200%">
      <feDropShadow dx="0" dy="0.375" stdDeviation="0.5625" flood-color="#000" flood-opacity="0.15"/>
    </filter>
    
    <!-- Glow effect -->
    <filter id="glow96" x="-50%" y="-50%" width="200%" height="200%">
      <feGaussianBlur stdDeviation="0.5625" result="coloredBlur"/>
      <feMerge> 
        <feMergeNode in="coloredBlur"/>
        <feMergeNode in="SourceGraphic"/>
      </feMerge>
    </filter>
  </defs>
  
  <!-- Background circle with gradient -->
  <circle cx="48" cy="48" r="45.12" fill="url(#bgGradient96)" filter="url(#shadow96)"/>
  
  <!-- Outer decorative ring -->
  <circle cx="48" cy="48" r="41.5104" fill="none" stroke="rgba(255,255,255,0.15)" stroke-width="0.375"/>
  
  <!-- Compass ring -->
  <circle cx="48" cy="48" r="15.9375" fill="none" stroke="url(#ringGradient96)" stroke-width="1.125" filter="url(#innerShadow96)"/>
  <circle cx="48" cy="48" r="15.9375" fill="none" stroke="rgba(255,255,255,0.3)" stroke-width="0.1875"/>
  
  <!-- Main compass rose (8-pointed star) -->
  <g filter="url(#glow96)">
    <!-- Long points (N, E, S, W) -->
    <g fill="url(#starGradient96)" stroke="rgba(255,255,255,0.4)" stroke-width="0.1875">
      <!-- North point -->
      <path d="M 48 34.875 L 46.5 43.3125 L 48 41.4375 L 49.5 43.3125 Z"/>
      <!-- East point -->
      <path d="M 61.125 48 L 52.6875 46.5 L 54.5625 48 L 52.6875 49.5 Z"/>
      <!-- South point -->
      <path d="M 48 61.125 L 49.5 52.6875 L 48 54.5625 L 46.5 52.6875 Z"/>
      <!-- West point -->
      <path d="M 34.875 48 L 43.3125 49.5 L 41.4375 48 L 43.3125 46.5 Z"/>
    </g>
    
    <!-- Short points (NE, SE, SW, NW) -->
    <g fill="rgba(255,255,255,0.8)" stroke="rgba(255,255,255,0.6)" stroke-width="0.09375">
      <!-- Northeast -->
      <path d="M 57.375 38.625 L 51.75 45.1875 L 52.6875 43.3125 L 50.8125 44.25 Z"/>
      <!-- Southeast -->
      <path d="M 57.375 57.375 L 50.8125 51.75 L 52.6875 52.6875 L 51.75 50.8125 Z"/>
      <!-- Southwest -->
      <path d="M 38.625 57.375 L 44.25 50.8125 L 43.3125 52.6875 L 45.1875 51.75 Z"/>
      <!-- Northwest -->
      <path d="M 38.625 38.625 L 45.1875 44.25 L 43.3125 43.3125 L 44.25 45.1875 Z"/>
    </g>
  </g>
  
  <!-- Compass needle -->
  <g filter="url(#innerShadow96)">
    <!-- North needle (red) -->
    <path d="M 48 39.5625 L 47.25 48.9375 L 48 48 L 48.75 48.9375 Z" 
          fill="url(#needleNorth96)" stroke="rgba(255,255,255,0.3)" stroke-width="0.09375"/>
    
    <!-- South needle (dark) -->
    <path d="M 48 56.4375 L 48.75 47.0625 L 48 48 L 47.25 47.0625 Z" 
          fill="url(#needleSouth96)" stroke="rgba(255,255,255,0.2)" stroke-width="0.09375"/>
  </g>
  
  <!-- Center pivot -->
  <circle cx="48" cy="48" r="1.5" fill="url(#ringGradient96)" stroke="rgba(255,255,255,0.5)" stroke-width="0.1875" filter="url(#innerShadow96)"/>
  <circle cx="48" cy="48" r="0.75" fill="rgba(255,255,255,0.9)"/>
  
  <!-- Cardinal direction markers (for larger sizes) -->
  
  
  <!-- Decorative dots around the compass -->
  
  
  <!-- Brand indicator (for larger sizes) -->
  
</svg>